<?xml version="1.0" standalone="no"?>
<!DOCTYPE svg PUBLIC "-//W3C//DTD SVG 20010904//EN"
 "http://www.w3.org/TR/2001/REC-SVG-20010904/DTD/svg10.dtd">
<svg version="1.0" xmlns="http://www.w3.org/2000/svg"
 width="544.000000pt" height="544.000000pt" viewBox="0 0 544.000000 544.000000"
 preserveAspectRatio="xMidYMid meet">
<metadata>
Created by potrace 1.14, written by Peter Selinger 2001-2017
</metadata>
<g transform="translate(0.000000,544.000000) scale(0.100000,-0.100000)"
fill="#000000" stroke="none">
<path d="M1230 4486 c-19 -13 -43 -32 -53 -43 -24 -27 -127 -221 -127 -240 0
-8 -18 -52 -39 -96 -55 -114 -71 -155 -71 -184 0 -14 -15 -51 -34 -82 -38 -62
-57 -105 -91 -201 -13 -36 -43 -110 -68 -165 -24 -55 -67 -161 -95 -235 -28
-74 -64 -160 -81 -190 -16 -30 -41 -95 -56 -145 -46 -154 -57 -176 -101 -192
-22 -8 -64 -20 -94 -28 -105 -24 -165 -60 -201 -119 -47 -76 -10 -132 80 -120
42 5 55 3 81 -16 23 -16 28 -26 21 -33 -6 -6 -11 -20 -11 -32 0 -11 -6 -29
-13 -40 -20 -29 -65 -162 -73 -214 -3 -24 -17 -75 -30 -112 -13 -38 -24 -84
-24 -103 0 -19 -4 -37 -9 -41 -5 -3 -12 -19 -16 -35 -4 -17 -13 -43 -20 -58
-8 -15 -19 -67 -25 -117 -6 -49 -18 -134 -26 -188 -17 -119 -18 -266 -2 -319
6 -22 23 -49 38 -61 14 -12 29 -30 33 -40 5 -13 18 -17 56 -17 46 0 57 5 130
60 44 33 83 65 88 72 4 7 11 40 14 73 10 89 24 134 52 164 17 18 26 43 31 81
4 30 17 89 31 130 52 159 73 237 80 289 12 87 77 267 145 396 34 66 66 125 72
132 6 8 85 13 256 15 223 4 253 7 304 26 94 36 165 23 140 -25 -17 -32 -70
-197 -77 -238 -4 -22 -18 -68 -31 -103 -13 -34 -24 -72 -24 -85 0 -12 -7 -31
-15 -41 -8 -11 -15 -33 -15 -50 0 -16 -18 -89 -39 -160 -51 -172 -71 -263 -71
-329 0 -30 -7 -71 -15 -90 -16 -40 -20 -123 -6 -131 5 -3 12 -18 15 -33 10
-41 39 -93 52 -93 6 0 17 -7 24 -15 24 -29 64 -17 147 44 79 58 93 75 93 111
0 10 7 31 15 46 8 16 15 48 15 71 0 23 9 57 19 75 22 37 83 238 104 343 8 39
26 95 40 125 26 59 87 243 87 265 0 7 16 46 35 87 20 41 38 99 42 129 7 69 46
137 81 146 66 16 212 93 251 132 35 35 41 47 41 83 0 32 -6 49 -27 70 -24 25
-33 28 -95 28 l-68 0 0 38 c0 22 6 52 14 68 8 16 20 52 27 79 12 53 19 72 68
176 17 36 31 71 31 77 0 7 4 20 9 30 5 9 24 64 42 122 18 58 56 152 84 210 28
58 71 167 95 243 33 102 48 137 60 137 23 0 58 106 70 213 l10 88 -35 44 c-65
79 -97 77 -168 -12 -30 -38 -66 -79 -80 -92 -56 -51 -255 -378 -289 -473 -28
-79 -77 -184 -108 -228 -22 -33 -61 -132 -125 -321 -30 -86 -65 -184 -79 -219
-14 -35 -26 -76 -26 -92 0 -39 -26 -75 -58 -83 -16 -3 -54 3 -91 15 -80 25
-221 28 -276 4 -22 -9 -84 -17 -154 -21 -100 -5 -118 -4 -130 11 -10 12 -11
19 -2 30 17 20 117 256 124 293 3 17 40 112 81 210 41 98 86 217 100 266 14
48 40 120 57 160 21 47 34 96 39 142 3 39 13 84 22 101 10 17 22 53 28 80 7
27 16 59 22 71 6 12 9 50 6 85 -3 55 -10 73 -53 141 -41 63 -56 79 -85 87 -49
14 -60 12 -100 -14z"/>
<path d="M3375 4347 c-72 -63 -175 -171 -238 -250 -67 -82 -311 -324 -336
-332 -11 -3 -21 -11 -21 -16 0 -5 -73 -85 -162 -177 -223 -231 -238 -248 -238
-276 0 -18 11 -30 43 -48 37 -21 46 -22 77 -11 19 6 46 12 60 13 14 0 42 13
63 28 20 15 56 40 80 57 69 49 212 185 266 255 28 36 55 68 59 72 178 166 202
184 202 155 0 -25 -77 -242 -99 -279 -13 -21 -29 -61 -36 -90 -13 -53 -71
-211 -102 -278 -36 -80 -42 -98 -54 -155 -16 -86 -53 -184 -114 -305 -58 -115
-95 -223 -95 -277 0 -20 -21 -83 -49 -147 -27 -61 -67 -166 -90 -233 -40 -118
-54 -171 -86 -348 -9 -44 -20 -96 -25 -115 -6 -19 -10 -96 -10 -171 l0 -135
46 -72 c45 -71 46 -72 89 -72 53 0 65 14 74 87 4 32 12 67 19 78 6 11 23 58
37 105 15 47 42 110 60 140 18 30 38 73 44 95 7 22 46 108 88 191 52 105 77
166 80 200 3 27 23 86 45 134 22 47 49 114 59 150 11 36 45 144 76 240 30 96
62 198 70 225 7 28 43 138 78 245 36 107 72 222 81 255 8 33 21 74 29 90 7 17
22 59 33 95 11 36 64 191 116 344 94 273 96 281 96 370 0 76 -4 97 -23 129
-31 55 -102 87 -188 87 -39 -1 -51 -7 -104 -53z"/>
<path d="M4840 4389 c-14 -6 -90 -26 -170 -45 -80 -19 -179 -45 -220 -59 -41
-14 -87 -25 -102 -25 -33 0 -138 -38 -216 -79 -32 -16 -73 -34 -92 -40 -19 -6
-56 -29 -82 -52 -64 -54 -64 -79 -2 -115 l46 -27 96 17 c54 10 142 32 197 48
55 17 215 59 355 94 246 62 258 64 382 64 70 0 128 -2 128 -4 0 -40 -123 -222
-164 -242 -17 -9 -110 -94 -206 -190 -166 -164 -213 -206 -372 -325 -82 -61
-141 -125 -225 -246 -35 -51 -68 -95 -74 -98 -5 -4 -20 -28 -34 -54 -32 -64
-42 -141 -24 -193 10 -32 10 -44 0 -60 -10 -16 -9 -24 4 -44 8 -13 20 -24 26
-24 6 0 26 -12 45 -27 32 -24 39 -25 68 -15 18 7 57 12 87 12 30 0 74 6 99 14
153 48 285 45 330 -9 25 -30 -3 -323 -40 -420 -5 -14 -10 -42 -10 -61 0 -22
-23 -80 -65 -164 -68 -136 -170 -277 -324 -449 -93 -104 -144 -138 -220 -146
-92 -10 -165 -27 -183 -43 -24 -20 -88 -7 -135 27 -46 34 -183 168 -183 180 0
30 35 84 70 106 46 29 62 55 58 93 -3 25 -7 27 -56 30 l-53 3 -70 -68 c-39
-37 -91 -94 -115 -126 -37 -49 -44 -66 -44 -104 0 -53 23 -106 57 -133 14 -11
39 -40 56 -66 17 -26 53 -62 81 -81 28 -18 70 -48 94 -66 l43 -32 192 -3 c190
-3 192 -3 228 21 21 14 47 28 60 32 32 11 136 70 184 105 22 16 65 47 95 69
30 21 82 67 115 100 33 34 64 61 70 61 14 0 128 128 148 165 9 17 34 52 56 79
23 26 41 59 41 72 0 13 12 38 28 56 15 18 32 44 38 58 6 14 22 50 36 80 25 54
56 186 76 325 23 155 -29 280 -186 447 -73 77 -109 98 -172 98 -22 0 -51 6
-63 14 -12 8 -50 17 -84 21 -35 4 -63 10 -63 14 0 16 151 153 210 191 38 24
67 50 70 63 3 11 43 51 89 87 45 36 106 95 134 131 108 138 140 174 168 191
16 10 29 22 29 27 0 13 98 163 141 216 48 59 92 161 92 209 -1 51 -31 122 -72
168 -17 20 -70 62 -117 94 l-87 59 -136 2 c-79 2 -146 -2 -161 -8z"/>
</g>
</svg>
